HIERARCHY
ROOT joint_Root
{
	OFFSET 0.0 0.0 0.0
	CHANNELS 6 Xposition Yposition Zposition Zrotation Xrotation Yrotation 
	JOINT Hips
	{
		OFFSET 4.5925 91.4895 -427.239
		CHANNELS 6 Xposition Yposition Zposition Zrotation Xrotation Yrotation 
		JOINT Spine
		{
			OFFSET 15.7357 0.0 0.0
			CHANNELS 6 Xposition Yposition Zposition Zrotation Xrotation Yrotation 
			JOINT Chest
			{
				OFFSET 8.98455 -0.406207 0.0
				CHANNELS 6 Xposition Yposition Zposition Zrotation Xrotation Yrotation 
				JOINT Neck
				{
					OFFSET 16.3773 0.0 0.0
					CHANNELS 6 Xposition Yposition Zposition Zrotation Xrotation Yrotation 
					JOINT Head
					{
						OFFSET 6.45672 0.0 0.0
						CHANNELS 6 Xposition Yposition Zposition Zrotation Xrotation Yrotation 
						End Site
						{
							OFFSET 0.0 0.0 0.0
						}
					}
				}
				JOINT Shoulder_L
				{
					OFFSET 12.9942 -0.242716 4.98039
					CHANNELS 6 Xposition Yposition Zposition Zrotation Xrotation Yrotation 
					JOINT UpperArm_L
					{
						OFFSET 5.34809 0.0 0.0
						CHANNELS 6 Xposition Yposition Zposition Zrotation Xrotation Yrotation 
						JOINT LowerArm_L
						{
							OFFSET 24.3286 1.87007e-05 0.0
							CHANNELS 6 Xposition Yposition Zposition Zrotation Xrotation Yrotation 
							JOINT Hand_L
							{
								OFFSET 22.2916 0.0 0.0
								CHANNELS 6 Xposition Yposition Zposition Zrotation Xrotation Yrotation 
								End Site
								{
									OFFSET 0.0 0.0 0.0
								}
							}
						}
					}
				}
				JOINT Shoulder_R
				{
					OFFSET 12.9945 -0.242716 -4.98039
					CHANNELS 6 Xposition Yposition Zposition Zrotation Xrotation Yrotation 
					JOINT UpperArm_R
					{
						OFFSET -5.34813 0.0 0.0
						CHANNELS 6 Xposition Yposition Zposition Zrotation Xrotation Yrotation 
						JOINT LowerArm_R
						{
							OFFSET -24.3289 0.000322201 0.0
							CHANNELS 6 Xposition Yposition Zposition Zrotation Xrotation Yrotation 
							JOINT Hand_R
							{
								OFFSET -22.2915 -0.000108084 0.0
								CHANNELS 6 Xposition Yposition Zposition Zrotation Xrotation Yrotation 
								End Site
								{
									OFFSET 0.0 0.0 0.0
								}
							}
						}
					}
				}
			}
		}
		JOINT UpperLeg_L
		{
			OFFSET -2.19248 -6.46944 0.0
			CHANNELS 6 Xposition Yposition Zposition Zrotation Xrotation Yrotation 
			JOINT LowerLeg_L
			{
				OFFSET 39.0811 0.0 -1.23785e-05
				CHANNELS 6 Xposition Yposition Zposition Zrotation Xrotation Yrotation 
				JOINT Foot_L
				{
					OFFSET 40.9854 0.0 -1.26872e-05
					CHANNELS 6 Xposition Yposition Zposition Zrotation Xrotation Yrotation 
					JOINT Toes_L
					{
						OFFSET 11.7543 0.0 0.0
						CHANNELS 6 Xposition Yposition Zposition Zrotation Xrotation Yrotation 
						End Site
						{
							OFFSET 0.0 0.0 0.0
						}
					}
				}
			}
		}
		JOINT UpperLeg_R
		{
			OFFSET -2.19251 6.46944 0.0
			CHANNELS 6 Xposition Yposition Zposition Zrotation Xrotation Yrotation 
			JOINT LowerLeg_R
			{
				OFFSET -39.0811 -0.00228153 -0.0401928
				CHANNELS 6 Xposition Yposition Zposition Zrotation Xrotation Yrotation 
				JOINT Foot_R
				{
					OFFSET -40.9854 0.0 0.0
					CHANNELS 6 Xposition Yposition Zposition Zrotation Xrotation Yrotation 
					JOINT Toes_R
					{
						OFFSET -11.7543 0.0 0.0
						CHANNELS 6 Xposition Yposition Zposition Zrotation Xrotation Yrotation 
						End Site
						{
							OFFSET 0.0 0.0 0.0
						}
					}
				}
			}
		}
	}
}
MOTION
Frames:	8
Frame Time:	0.0333333
0.000000 0.000000 0.000000 0.000000 0.000000 -0.000000 1.462440 88.923000 48.275300 -88.245200 -0.601965 -179.031000 15.735700 0.000005 -0.000001 86.244200 78.994000 -85.335100 8.984550 -0.406207 -0.000000 14.213300 -1.373760 1.990370 16.377300 -0.000001 -0.000001 3.203620 -4.081080 1.465280 6.456720 -0.000001 -0.000000 -6.325820 -3.673600 2.268350 12.994200 -0.242716 4.980390 -90.912500 3.637200 -75.906500 5.348090 -0.000007 -0.000001 -60.603900 24.860500 -25.472300 24.328600 0.000019 0.000005 15.599400 19.334600 -40.139900 22.291600 -0.000001 0.000005 13.392100 5.246740 1.518710 12.994500 -0.242716 -4.980390 88.576600 9.410310 -81.358900 -5.348130 -0.000001 -0.000004 -60.225100 29.766900 -13.886200 -24.328900 0.000322 -0.000009 3.565290 7.081650 -26.818600 -22.291500 -0.000108 -0.000004 16.432500 5.396210 -2.814290 -2.192480 -6.469440 -0.000000 -174.272000 -4.293170 -15.154000 39.081100 -0.000007 -0.000012 0.094665 -0.048791 62.731000 40.985400 -0.000006 -0.000013 0.579821 0.563282 -55.878100 11.754300 -0.000000 0.000003 -0.005095 -0.062394 -19.115500 -2.192510 6.469440 -0.000001 -176.798000 16.219500 157.681000 -39.081100 -0.002282 -0.040193 -0.309575 0.376580 39.719500 -40.985400 0.000008 0.000006 4.020640 4.183360 -67.386000 -11.754300 -0.000006 -0.000006 -0.002301 -0.032418 -17.891300
0.000000 0.000000 0.000000 0.000000 0.000000 -0.000000 1.684610 88.926000 46.071800 -88.507700 -0.272398 -178.765000 15.735700 0.000005 -0.000001 87.673000 78.953900 -86.878000 8.984550 -0.406207 -0.000000 14.315500 -0.840913 1.696380 16.377300 -0.000001 -0.000001 3.404890 -4.040000 1.669890 6.456720 -0.000001 -0.000000 -6.052690 -3.864840 2.578530 12.994200 -0.242716 4.980390 -90.951300 3.732560 -75.691200 5.348090 -0.000007 -0.000001 -61.405200 25.759300 -24.212200 24.328600 0.000019 0.000005 15.701500 19.920400 -39.525200 22.291600 -0.000001 0.000005 13.251800 5.245630 1.548000 12.994500 -0.242716 -4.980390 88.582700 9.468610 -81.446800 -5.348130 -0.000001 -0.000004 -58.796300 29.864900 -15.301800 -24.328900 0.000322 -0.000009 3.661930 7.338680 -26.619500 -22.291500 -0.000108 -0.000004 16.718400 5.398860 -2.900410 -2.192480 -6.469440 -0.000000 -174.907000 -4.409970 -17.495600 39.081100 -0.000007 -0.000012 0.082774 -0.036438 66.236800 40.985400 -0.000006 -0.000013 1.357870 -1.621780 -58.094300 11.754300 -0.000000 0.000003 -0.002965 -0.040208 -18.212000 -2.192510 6.469440 -0.000001 -177.380000 16.297800 159.455000 -39.081100 -0.002282 -0.040193 -0.320235 0.383068 40.182700 -40.985400 0.000008 0.000006 4.385250 4.336150 -69.319500 -11.754300 -0.000006 -0.000006 -0.002002 -0.028744 -17.741900
0.000000 0.000000 0.000000 0.000000 0.000000 -0.000000 1.825440 89.075800 43.998500 -88.830600 -0.157060 -178.640000 15.735700 0.000005 -0.000001 88.365700 78.947000 -87.732600 8.984550 -0.406207 -0.000000 14.335000 -0.586663 1.340650 16.377300 -0.000001 -0.000001 3.435770 -4.006140 1.734440 6.456720 -0.000001 -0.000000 -5.863660 -3.953430 2.713720 12.994200 -0.242716 4.980390 -90.957600 3.705240 -75.498700 5.348090 -0.000007 -0.000001 -62.621500 26.199200 -22.433200 24.328600 0.000019 0.000005 15.618700 20.402600 -38.726300 22.291600 -0.000001 0.000005 13.067500 5.251460 1.394170 12.994500 -0.242716 -4.980390 88.606000 9.442110 -81.562200 -5.348130 -0.000001 -0.000004 -57.815300 29.245700 -16.769100 -24.328900 0.000322 -0.000009 3.661090 7.342830 -26.601200 -22.291500 -0.000108 -0.000004 17.076400 5.394110 -2.746740 -2.192480 -6.469440 -0.000000 -175.703000 -4.410370 -19.536000 39.081100 -0.000007 -0.000012 0.061802 -0.026673 66.651200 40.985400 -0.000006 -0.000013 2.349900 -2.449650 -60.385400 11.754300 -0.000000 0.000003 -0.002446 -0.034172 -17.966300 -2.192510 6.469440 -0.000001 -177.947000 16.737700 161.364000 -39.081100 -0.002282 -0.040193 -0.259235 0.314136 39.884800 -40.985400 0.000008 0.000006 5.449860 4.542490 -70.883400 -11.754300 -0.000006 -0.000006 -0.001835 -0.026631 -17.656000
0.000000 0.000000 0.000000 0.000000 0.000000 -0.000000 1.917740 89.317800 42.076500 -89.115000 -0.254391 -178.705000 15.735700 0.000005 -0.000001 88.766800 79.030000 -88.294800 8.984550 -0.406207 -0.000000 14.171300 -0.440323 0.999101 16.377300 -0.000001 -0.000001 3.457990 -4.058700 1.772940 6.456720 -0.000001 -0.000000 -5.851700 -4.110580 2.653420 12.994200 -0.242716 4.980390 -90.962500 3.681660 -75.337500 5.348090 -0.000007 -0.000001 -63.788100 26.627500 -20.460600 24.328600 0.000019 0.000005 15.239200 20.711700 -37.606900 22.291600 -0.000001 0.000005 12.960800 5.254100 1.323930 12.994500 -0.242716 -4.980390 88.637600 9.261540 -81.594200 -5.348130 -0.000001 -0.000004 -57.526700 28.015500 -17.898500 -24.328900 0.000322 -0.000009 3.601960 7.145930 -26.847700 -22.291500 -0.000108 -0.000004 17.363400 5.397190 -2.846210 -2.192480 -6.469440 -0.000000 -176.377000 -4.401540 -21.239700 39.081100 -0.000007 -0.000012 0.046950 -0.022839 64.054300 40.985400 -0.000006 -0.000013 2.473290 -1.694960 -62.552800 11.754300 -0.000000 0.000003 -0.002172 -0.030850 -17.831200 -2.192510 6.469440 -0.000001 -178.491000 17.361300 163.313000 -39.081100 -0.002282 -0.040193 -0.198654 0.250032 38.925900 -40.985400 0.000008 0.000006 6.254890 4.783720 -72.005100 -11.754300 -0.000006 -0.000006 -0.001615 -0.023786 -17.540300
0.000000 0.000000 0.000000 0.000000 0.000000 -0.000000 1.952290 89.612400 40.254500 -89.409000 -0.347580 -178.803000 15.735700 0.000005 -0.000001 89.255000 79.109800 -88.978100 8.984550 -0.406207 -0.000000 14.013300 -0.264869 0.586620 16.377300 -0.000001 -0.000001 3.378440 -4.144630 1.828670 6.456720 -0.000001 -0.000000 -5.948400 -4.301690 2.551100 12.994200 -0.242716 4.980390 -90.973100 3.684830 -75.195700 5.348090 -0.000007 -0.000001 -64.794300 26.910900 -18.680900 24.328600 0.000019 0.000005 14.881200 21.269900 -36.223400 22.291600 -0.000001 0.000005 12.340800 5.253360 1.343700 12.994500 -0.242716 -4.980390 88.683400 9.083550 -81.717400 -5.348130 -0.000001 -0.000004 -57.403900 26.668700 -18.807300 -24.328900 0.000322 -0.000009 3.405540 6.570350 -27.485700 -22.291500 -0.000108 -0.000004 17.713500 5.397920 -2.870180 -2.192480 -6.469440 -0.000000 -176.944000 -4.919030 -22.305300 39.081100 -0.000007 -0.000012 0.040431 -0.024622 58.654400 40.985400 -0.000006 -0.000013 1.875740 0.178476 -64.088400 11.754300 -0.000000 0.000003 -0.001933 -0.027878 -17.710400 -2.192510 6.469440 -0.000001 -178.987000 18.074300 165.324000 -39.081100 -0.002282 -0.040193 -0.096692 0.129951 37.572700 -40.985400 0.000008 0.000006 7.602890 4.900690 -72.918500 -11.754300 -0.000006 -0.000006 -0.001421 -0.021224 -17.436100
0.000000 0.000000 0.000000 0.000000 0.000000 -0.000000 1.866550 89.901000 38.521300 -89.788300 -0.341618 -178.959000 15.735700 0.000005 -0.000001 89.908200 79.182300 -89.875900 8.984550 -0.406207 -0.000000 13.869400 -0.032560 0.068446 16.377300 -0.000001 -0.000001 3.226420 -4.215300 1.878160 6.456720 -0.000001 -0.000000 -6.080430 -4.528860 2.435970 12.994200 -0.242716 4.980390 -90.986900 3.710420 -75.093700 5.348090 -0.000007 -0.000001 -65.689800 26.988600 -17.091800 24.328600 0.000019 0.000005 14.583400 22.160100 -34.596400 22.291600 -0.000001 0.000005 11.979600 5.249010 1.459030 12.994500 -0.242716 -4.980390 88.724000 8.924880 -81.829700 -5.348130 -0.000001 -0.000004 -56.989000 25.791900 -19.848000 -24.328900 0.000322 -0.000009 3.167160 5.918070 -28.229600 -22.291500 -0.000108 -0.000004 17.965300 5.403620 -3.055400 -2.192480 -6.469440 -0.000000 -177.688000 -5.999750 -22.837900 39.081100 -0.000007 -0.000012 0.034534 -0.027980 50.981400 40.985400 -0.000006 -0.000013 1.068820 1.824830 -64.457600 11.754300 -0.000000 0.000003 -0.002215 -0.031376 -17.852600 -2.192510 6.469440 -0.000001 -179.627000 18.624000 167.276000 -39.081100 -0.002282 -0.040193 0.013335 -0.013792 36.070100 -40.985400 0.000008 0.000006 8.891820 4.996120 -73.679000 -11.754300 -0.000006 -0.000006 -0.001596 -0.023541 -17.530300
0.000000 0.000000 0.000000 0.000000 0.000000 -0.000000 1.709090 90.147200 36.865300 -90.069100 -0.387966 -179.238000 15.735700 0.000005 -0.000001 90.531500 79.271900 -90.688700 8.984550 -0.406207 -0.000000 13.689600 0.188711 -0.337161 16.377300 -0.000001 -0.000001 3.021800 -4.316450 1.856730 6.456720 -0.000001 -0.000000 -6.184650 -4.699590 2.286180 12.994200 -0.242716 4.980390 -91.021300 3.812280 -74.990900 5.348090 -0.000007 -0.000001 -66.580600 26.711200 -15.593600 24.328600 0.000019 0.000005 14.261400 23.082100 -32.957100 22.291600 -0.000001 0.000005 11.764800 5.243400 1.606830 12.994500 -0.242716 -4.980390 88.765200 8.714320 -81.902800 -5.348130 -0.000001 -0.000004 -56.231300 25.439800 -21.062300 -24.328900 0.000322 -0.000009 3.214110 5.814600 -29.007800 -22.291500 -0.000108 -0.000004 18.185300 5.405270 -3.109400 -2.192480 -6.469440 -0.000000 -178.404000 -7.257510 -23.049200 39.081100 -0.000007 -0.000012 0.028318 -0.031743 41.733800 40.985400 -0.000006 -0.000013 0.041415 3.271670 -63.317900 11.754300 -0.000000 0.000003 -0.001965 -0.028277 -17.726600 -2.192510 6.469440 -0.000001 179.681000 19.071000 168.767000 -39.081100 -0.002282 -0.040193 0.024791 -0.030772 34.941800 -40.985400 0.000008 0.000006 8.950150 5.303560 -73.676200 -11.754300 -0.000006 -0.000006 -0.001849 -0.026808 -17.663200
0.000000 0.000000 0.000000 0.000000 0.000000 -0.000000 1.472450 90.293700 35.158100 -90.128800 -0.317729 -179.354000 15.735700 0.000005 -0.000001 91.281400 79.309300 -91.563400 8.984550 -0.406207 -0.000000 13.611500 0.458536 -0.619012 16.377300 -0.000001 -0.000001 2.902990 -4.330260 1.928760 6.456720 -0.000001 -0.000000 -6.339950 -4.829240 2.014880 12.994200 -0.242716 4.980390 -91.055500 3.909870 -74.880200 5.348090 -0.000007 -0.000001 -67.501900 26.077500 -14.024200 24.328600 0.000019 0.000005 13.903500 23.838900 -31.486400 22.291600 -0.000001 0.000005 11.682400 5.234350 1.842510 12.994500 -0.242716 -4.980390 88.810300 8.517370 -82.018200 -5.348130 -0.000001 -0.000004 -55.288400 25.382900 -22.276600 -24.328900 0.000322 -0.000009 3.299850 5.800100 -29.714200 -22.291500 -0.000108 -0.000004 18.264800 5.409850 -3.260140 -2.192480 -6.469440 -0.000000 -179.004000 -7.895710 -23.250800 39.081100 -0.000007 -0.000012 0.055271 -0.086528 32.568400 40.985400 -0.000006 -0.000013 0.367771 4.249100 -61.951400 11.754300 -0.000000 0.000003 -0.001737 -0.025374 -17.608500 -2.192510 6.469440 -0.000001 179.058000 19.377700 170.209000 -39.081100 -0.002282 -0.040193 0.023562 -0.029801 34.222000 -40.985400 0.000008 0.000006 8.699330 5.666610 -73.492500 -11.754300 -0.000006 -0.000006 -0.047863 -0.088837 -18.076900
